<?xml version="1.0" standalone="no"?>
<!DOCTYPE svg PUBLIC "-//W3C//DTD SVG 20010904//EN" "http://www.w3.org/TR/2001/REC-SVG-20010904/DTD/svg10.dtd">
<svg version="1.0" xmlns="http://www.w3.org/2000/svg" width="400.000000pt" height="400.000000pt"
  viewBox="0 0 400.000000 400.000000" preserveAspectRatio="xMidYMid meet">
  <g transform="translate(0.000000,400.000000) scale(0.100000,-0.100000)" fill="#000000" stroke="none">
    <path d="M1639 3861 l-96 -79 -108 -6 c-294 -17 -529 -111 -678 -273 -23 -25
-47 -51 -52 -57 -26 -28 -91 -135 -135 -224 -58 -117 -92 -202 -135 -342 -36
-117 -24 -103 -209 -243 -99 -75 -113 -126 -43 -151 22 -8 33 -5 64 17 20 14
39 25 40 23 2 -2 -16 -35 -40 -72 -105 -163 -153 -300 -151 -431 1 -29 -2 -32
-22 -29 -28 5 -74 -28 -74 -54 0 -82 136 -340 289 -549 56 -75 81 -120 90
-156 38 -161 122 -367 197 -482 71 -110 172 -217 258 -276 106 -72 278 -142
440 -178 l91 -20 111 -110 c61 -60 115 -109 120 -109 19 0 54 31 54 48 0 9
-30 47 -67 85 l-68 68 45 -2 c30 -2 86 -23 166 -61 323 -154 538 -183 764
-104 185 65 389 223 560 435 39 49 83 94 98 100 83 38 278 185 365 276 56 59
123 155 153 219 14 31 57 98 95 149 76 101 155 246 188 347 52 159 63 373 27
510 -25 97 -116 273 -196 379 -70 92 -72 98 -105 225 -19 72 -45 163 -59 203
l-24 71 26 -12 c15 -6 46 -22 69 -34 50 -26 71 -27 101 -6 28 20 28 59 0 87
-13 13 -77 47 -144 76 l-121 52 -27 57 c-74 153 -221 337 -327 409 -66 45
-175 98 -253 122 -123 38 -180 46 -341 46 -146 0 -223 -8 -340 -34 l-80 -18
-87 44 c-90 44 -125 52 -146 31 -20 -20 -14 -45 16 -69 l27 -22 -50 8 c-67 10
-88 12 -165 20 -36 4 -66 8 -67 9 -1 1 25 23 58 49 60 48 74 78 47 105 -24 24
-55 10 -149 -67z m1151 -185 c182 -44 279 -96 391 -206 69 -69 159 -184 159
-205 0 -2 -51 19 -112 46 -62 28 -174 75 -248 105 -74 31 -148 61 -165 68 -54
24 -385 137 -415 142 -30 6 -90 38 -83 45 4 4 37 10 73 14 36 4 66 8 68 10 10
10 277 -5 332 -19z m-1080 -20 c19 -3 50 -5 68 -5 42 -1 41 -14 -4 -30 -100
-36 -388 -185 -579 -298 -86 -51 -88 -52 -50 -17 22 20 63 58 90 83 95 88 290
258 308 267 17 10 93 9 167 0z m-403 -78 c-149 -130 -300 -270 -477 -445 -160
-157 -244 -232 -262 -233 -21 -1 103 263 177 377 103 157 214 251 369 313 74
29 254 72 268 63 4 -2 -30 -36 -75 -75z m821 7 c36 -8 52 -12 150 -40 77 -21
120 -43 240 -117 400 -247 716 -485 957 -722 l113 -111 16 -85 c83 -441 80
-903 -6 -1224 -19 -72 -27 -86 -78 -136 -65 -66 -106 -95 -114 -82 -5 8 36
119 65 174 5 9 11 34 15 55 13 84 -76 127 -130 62 -14 -17 -26 -35 -26 -41 0
-10 -38 -112 -67 -178 -18 -42 -102 -209 -134 -266 -19 -34 -41 -52 -124 -97
-55 -31 -125 -67 -156 -80 -61 -27 -76 -52 -53 -86 14 -19 12 -21 -20 -35
-108 -45 -403 -133 -509 -151 -18 -4 -50 -10 -72 -15 -22 -5 -66 -12 -98 -15
-32 -4 -66 -8 -76 -10 -72 -14 -317 -21 -351 -11 -53 17 -423 254 -460 296 -3
3 -31 24 -62 47 -226 168 -672 610 -684 678 -1 5 -5 24 -8 40 -3 17 -8 50 -12
75 -3 25 -7 56 -10 70 -28 173 -23 556 11 800 33 235 35 241 126 345 58 68
112 115 197 176 447 320 830 537 1182 671 73 27 106 30 178 13z m792 -265 c92
-36 367 -159 443 -198 l72 -37 37 -95 c20 -52 43 -120 52 -150 l16 -54 -32 30
c-170 158 -376 322 -588 469 -126 87 -126 85 0 35z m-2594 -952 c-26 -126 -37
-441 -23 -658 l6 -95 -36 75 c-56 120 -82 237 -78 350 4 106 22 168 81 279 38
71 59 91 50 49z m3498 -116 c74 -150 95 -271 74 -428 -11 -81 -55 -219 -97
-303 -31 -60 -58 -92 -48 -55 6 21 13 75 23 179 12 132 5 489 -11 573 -1 9 -6
51 -10 92 -6 72 -6 74 10 52 9 -13 36 -62 59 -110z m-2814 -1621 c209 -208
210 -209 70 -154 -228 90 -392 262 -500 523 -17 40 -30 74 -30 76 0 5 243
-231 460 -445z m1765 -207 c-27 -25 -81 -68 -120 -95 -194 -140 -368 -180
-565 -130 -86 21 -193 59 -175 61 6 1 17 3 25 4 8 2 44 6 80 10 75 7 115 13
185 26 28 5 66 12 85 15 69 11 297 75 405 113 61 22 115 40 120 40 6 1 -12
-19 -40 -44z" />
    <path d="M1435 2793 c-71 -17 -81 -116 -15 -143 39 -16 108 4 89 26 -7 9 -17
11 -28 5 -48 -26 -92 21 -62 67 10 17 41 22 63 11 19 -10 36 7 22 21 -13 12
-47 18 -69 13z" />
    <path d="M1601 2779 c-60 -37 -38 -120 36 -135 26 -5 37 -1 57 19 69 69 -10
167 -93 116z m87 -56 c2 -10 -6 -27 -18 -38 -39 -35 -92 16 -62 61 20 31 74
15 80 -23z" />
    <path d="M1832 2792 c-32 -5 -59 -63 -46 -100 18 -50 89 -65 128 -26 56 56 2
139 -82 126z m69 -54 c8 -14 6 -25 -6 -44 -20 -31 -50 -31 -70 0 -18 27 -11
55 19 66 27 9 44 3 57 -22z" />
    <path d="M2074 2769 c-34 -36 -48 -37 -42 -4 4 20 1 25 -14 25 -17 0 -19 -7
-16 -72 2 -46 7 -73 16 -76 8 -2 12 7 12 26 0 43 10 46 40 10 14 -17 34 -32
43 -34 23 -3 21 3 -9 43 -26 34 -25 42 8 79 32 35 -4 38 -38 3z" />
    <path d="M2413 2792 c-6 -4 -13 -27 -15 -51 l-3 -43 -32 46 c-49 69 -65 62
-61 -26 4 -84 25 -107 30 -33 l3 47 33 -44 c50 -67 62 -60 62 34 0 43 -1 78
-2 78 -2 0 -8 -4 -15 -8z" />
    <path d="M2555 2792 c-70 -15 -81 -115 -15 -142 28 -11 89 -6 91 8 9 70 8 72
-22 72 -29 0 -42 -24 -16 -33 9 -4 9 -7 0 -17 -19 -20 -63 3 -63 32 0 43 28
61 68 47 13 -5 22 -5 22 1 0 6 0 13 0 18 0 10 -41 19 -65 14z" />
    <path d="M2194 2723 c1 -63 10 -88 27 -77 4 2 7 36 7 74 0 59 -3 70 -17 70
-15 0 -17 -11 -17 -67z" />
    <path d="M596 2265 c-2 -6 -3 -43 -3 -83 l0 -72 42 0 41 0 0 -242 -1 -243 -30
-1 c-16 -1 -35 -2 -41 -2 -7 -1 -11 -32 -11 -82 l-1 -80 159 0 c87 0 160 3
160 8 6 40 2 152 -6 153 -5 1 -22 2 -38 3 -15 2 -30 5 -32 8 -3 3 -4 71 -3
151 l3 146 128 -234 129 -235 77 0 78 0 -1 325 -1 325 43 0 42 0 0 83 0 82
-160 0 -160 0 0 -82 0 -83 40 0 40 0 0 -152 0 -153 -72 130 c-39 72 -97 177
-129 235 l-58 105 -115 0 c-71 0 -117 -4 -120 -10z" />
    <path d="M1438 2270 c0 -3 -2 -39 -2 -80 l-2 -75 41 -5 40 -5 0 -230 c1 -126
-1 -236 -3 -242 -3 -8 -15 -11 -32 -8 -38 7 -45 -6 -45 -92 l-1 -73 291 0 290
0 -1 113 c0 61 -2 117 -2 122 -3 14 -135 15 -144 1 -4 -6 -5 -23 -3 -38 6 -32
11 -30 -102 -32 l-83 -1 0 81 0 80 78 -1 77 -1 5 31 c3 16 3 54 2 82 l-4 53
-79 0 -79 0 0 80 0 80 89 0 c95 0 101 -3 95 -52 l-3 -28 78 0 77 0 -1 122 0
123 -287 0 c-159 0 -289 -2 -290 -5z" />
    <path d="M2185 2210 l-65 -66 0 -115 0 -115 65 -64 65 -65 143 0 142 0 3 -75
3 -75 -115 0 c-63 1 -118 4 -122 8 -4 3 -8 17 -9 29 -1 13 -3 26 -4 29 0 3
-38 6 -83 5 l-83 -2 -3 -56 -3 -55 67 -67 68 -66 166 0 166 0 64 65 65 66 1
112 2 112 -66 68 -66 67 -143 0 c-79 0 -144 3 -144 8 -1 4 -2 37 -3 75 l-2 67
123 0 123 0 0 -35 0 -35 89 0 89 0 0 57 c0 56 -1 57 -64 122 l-63 65 -170 1
-171 1 -65 -66z" />
    <path d="M2810 2153 l0 -123 80 0 80 0 0 40 0 40 48 0 47 0 -1 -242 c-1 -134
-2 -247 -3 -251 0 -5 -13 -8 -28 -7 -50 4 -50 3 -49 -72 l1 -73 163 -3 162 -2
0 75 0 75 -40 0 -40 0 0 250 0 250 45 0 45 0 0 -40 0 -40 79 0 c54 0 80 4 83
13 4 10 3 211 -1 227 0 3 -152 5 -336 5 l-335 0 0 -122z" />
    <path d="M1679 1081 c-29 -23 -31 -81 -4 -111 29 -32 131 -23 110 9 -3 7 -16
9 -27 6 -53 -17 -90 23 -61 65 13 18 22 21 49 17 36 -6 56 9 33 24 -24 15 -76
10 -100 -10z" />
    <path d="M1859 1093 c-1 -11 -1 -104 0 -125 1 -15 11 -18 56 -18 42 0 55 3 55
15 0 11 -11 15 -40 15 l-40 0 0 60 c0 47 -3 60 -15 60 -8 0 -15 -3 -16 -7z" />
    <path d="M2029 1098 c-7 -19 -3 -90 6 -114 17 -43 68 -52 101 -18 19 18 23 32
21 76 -1 38 -6 54 -17 56 -12 2 -15 -8 -14 -48 0 -54 -12 -74 -43 -68 -14 2
-19 16 -23 57 -3 31 -10 56 -17 59 -7 2 -14 2 -14 0z" />
    <path d="M2228 1048 c-6 -93 -3 -98 51 -98 26 0 52 5 59 12 14 14 16 58 3 58
-4 0 -6 11 -3 25 6 36 -11 51 -62 54 l-44 2 -4 -53z m82 7 c0 -9 -9 -15 -25
-15 -16 0 -25 6 -25 15 0 9 9 15 25 15 16 0 25 -6 25 -15z m10 -60 c0 -10 -10
-15 -30 -15 -20 0 -30 5 -30 15 0 10 10 15 30 15 20 0 30 -5 30 -15z" />
  </g>
</svg>